<svg width="34" height="26" viewBox="0 0 34 26" fill="none" xmlns="http://www.w3.org/2000/svg">
<path d="M6.18925 2.04688C4.31177 2.26201 2.69487 3.63098 2.15367 5.46279L2 5.9843V12.9921V19.9999L2.15367 20.5215C2.42093 21.4211 2.97549 22.2685 3.67036 22.8357C4.49217 23.5071 5.28726 23.8331 6.34961 23.9439C6.79726 23.9895 10.432 24.0091 17.4675 23.996C29.1199 23.97 28.2446 24.0026 29.2602 23.5202C30.2357 23.0573 31.0174 22.3076 31.4985 21.3689C32.033 20.3324 31.9996 20.8604 31.9996 12.9921C31.9996 5.1238 32.033 5.65184 31.4985 4.61533C30.8771 3.40281 29.7145 2.48365 28.3582 2.12511C27.9506 2.02081 27.1956 2.01429 17.3005 2.00125C11.4542 1.99473 6.45651 2.01429 6.18925 2.04688ZM28.3181 3.55275C29.4673 3.98952 30.2624 4.85001 30.5297 5.95823C30.6767 6.58404 30.6767 19.4002 30.5297 20.026C30.2557 21.1538 29.4005 22.0664 28.2446 22.4576L27.7903 22.6075H17.0332H6.27611L5.80173 22.4641C4.63916 22.1056 3.75053 21.1733 3.46991 20.026C3.32292 19.4002 3.32292 6.58404 3.46991 5.95823C3.7973 4.62185 4.91978 3.61794 6.30952 3.40933C6.50996 3.38326 11.4409 3.3637 17.2671 3.37022L27.8571 3.37674L28.3181 3.55275Z" fill="black" stroke="black" stroke-width="3"/>
<path d="M5.8752 5.67823C5.44759 5.93898 5.334 6.31056 5.58789 6.6365C5.67475 6.74733 7.24489 8.26623 9.08228 10.0133C10.9197 11.7604 12.4297 13.2141 12.443 13.2467C12.4564 13.2793 11.0266 14.6352 9.26936 16.2519C7.51214 17.8751 5.96205 19.3158 5.82843 19.4592C5.6213 19.6743 5.57453 19.7721 5.57453 19.9807C5.57453 20.411 6.04891 20.763 6.48321 20.6587C6.57675 20.6326 7.13798 20.1698 7.73263 19.6222C8.3206 19.0746 9.85732 17.6535 11.1468 16.4605C12.4364 15.2741 13.5121 14.2962 13.5388 14.2962C13.5655 14.2962 14.2804 14.9546 15.129 15.763L16.659 17.2297H16.9998H17.3338L18.9107 15.7304L20.4875 14.2245L20.895 14.5961C21.1222 14.8047 22.6589 16.2193 24.3026 17.7447C25.9529 19.2701 27.3693 20.5544 27.4428 20.6C27.6433 20.7108 27.8571 20.7043 28.0909 20.587C28.5052 20.3784 28.6121 19.9546 28.3448 19.5896C28.258 19.4722 26.7146 18.0185 24.9106 16.3562C23.0999 14.6939 21.6099 13.3053 21.5899 13.2728C21.5699 13.2402 23.0598 11.7799 24.9039 10.0263C26.748 8.27275 28.3315 6.74081 28.4183 6.62347C28.6254 6.34967 28.572 6.03025 28.2847 5.79557C27.9907 5.55437 27.7702 5.51525 27.5163 5.66519C27.3961 5.73038 24.9974 7.97288 22.1845 10.6456C19.3717 13.3184 17.0399 15.5022 16.9998 15.5022C16.9597 15.5022 14.6212 13.3184 11.8083 10.6456C8.99542 7.97288 6.61683 5.7369 6.51661 5.67823C6.29613 5.52829 6.12241 5.52829 5.8752 5.67823Z" fill="black" stroke="black" stroke-width="3"/>
</svg>
