<svg width="23" height="23" viewBox="0 0 23 23" fill="none" xmlns="http://www.w3.org/2000/svg">
<path d="M20.163 19.5444C15.5593 24.1519 8.0633 24.1519 3.45566 19.5444C-1.15189 14.9367 -1.15189 7.44091 3.45566 2.83527C4.67493 1.61805 6.16133 0.689184 7.87084 0.08348C8.40935 -0.105006 9.00556 0.031604 9.40542 0.433499C9.80936 0.837333 9.94588 1.43344 9.75554 1.96807C8.59784 5.23335 9.38632 8.7678 11.8093 11.1909C14.2286 13.6119 17.7631 14.3985 21.0322 13.2447C21.5668 13.0543 22.1649 13.191 22.5668 13.5948C22.9707 13.9946 23.1053 14.5928 22.9149 15.1294C22.3129 16.8387 21.3822 18.3251 20.163 19.5444ZM5.54408 4.92367C2.08833 8.37938 2.08833 14.0022 5.54408 17.456C9.23632 21.1501 15.5247 20.8174 18.7438 16.702C15.4246 16.9097 12.1555 15.7117 9.72093 13.279C7.28636 10.8464 6.09026 7.57725 6.29785 4.25815C6.03256 4.46602 5.78057 4.68718 5.54408 4.92367Z" fill="#1D1D1B"/>
</svg>
