<svg width="23" height="23" viewBox="0 0 23 23" fill="none" xmlns="http://www.w3.org/2000/svg">
<path d="M11.5 5.30769C8.08594 5.30769 5.30769 8.08594 5.30769 11.5C5.30769 14.9141 8.08594 17.6923 11.5 17.6923C14.9141 17.6923 17.6923 14.9141 17.6923 11.5C17.6923 8.08594 14.9141 5.30769 11.5 5.30769ZM11.5 15.9231C9.05691 15.9231 7.07692 13.9431 7.07692 11.5C7.07692 9.05691 9.05691 7.07692 11.5 7.07692C13.9431 7.07692 15.9231 9.05691 15.9231 11.5C15.9231 13.9431 13.9431 15.9231 11.5 15.9231ZM11.5 3.53846C11.9884 3.53846 12.3846 3.14221 12.3846 2.65385V0.884615C12.3846 0.396252 11.9884 0 11.5 0C11.0116 0 10.6154 0.396252 10.6154 0.884615V2.65385C10.6154 3.14221 11.0116 3.53846 11.5 3.53846ZM11.5 19.4615C11.0116 19.4615 10.6154 19.8578 10.6154 20.3462V22.1154C10.6154 22.6037 11.0116 23 11.5 23C11.9884 23 12.3846 22.6037 12.3846 22.1154V20.3462C12.3846 19.8578 11.9884 19.4615 11.5 19.4615ZM18.38 5.86981L19.6309 4.61891C19.9764 4.27336 19.9764 3.71356 19.6309 3.36801C19.2853 3.02245 18.7255 3.02245 18.38 3.36801L17.1291 4.61891C16.7835 4.96446 16.7835 5.52426 17.1291 5.86981C17.4746 6.21536 18.0344 6.21536 18.38 5.86981ZM4.62001 17.1302L3.36911 18.3811C3.02356 18.7266 3.02356 19.2864 3.36911 19.632C3.71467 19.9775 4.27446 19.9775 4.62001 19.632L5.87092 18.3811C6.21647 18.0344 6.21647 17.4757 5.87092 17.1302C5.52542 16.7846 4.96557 16.7835 4.62001 17.1302ZM3.53846 11.5C3.53846 11.0116 3.14221 10.6154 2.65385 10.6154H0.884615C0.396252 10.6154 0 11.0116 0 11.5C0 11.9884 0.396252 12.3846 0.884615 12.3846H2.65385C3.14221 12.3846 3.53846 11.9884 3.53846 11.5ZM22.1154 10.6154H20.3462C19.8578 10.6154 19.4615 11.0116 19.4615 11.5C19.4615 11.9884 19.8578 12.3846 20.3462 12.3846H22.1154C22.6037 12.3846 23 11.9884 23 11.5C23 11.0116 22.6037 10.6154 22.1154 10.6154ZM4.61885 5.86981C4.96446 6.21536 5.52426 6.21536 5.86975 5.86981C6.21536 5.52426 6.21536 4.96446 5.86975 4.61891L4.61885 3.36801C4.2733 3.02245 3.71356 3.02245 3.36795 3.36801C3.0224 3.71356 3.0224 4.27336 3.36795 4.61891L4.61885 5.86981ZM18.3811 17.129C18.0344 16.7835 17.4757 16.7835 17.1302 17.129C16.7846 17.4746 16.7835 18.0344 17.1302 18.3799L18.3811 19.6308C18.7266 19.9764 19.2864 19.9764 19.632 19.6308C19.9775 19.2853 19.9775 18.7255 19.632 18.3799L18.3811 17.129Z" fill="#1D1D1B"/>
</svg>
